<svg version="1.1" id="Layer_1" xmlns="http://www.w3.org/2000/svg" xmlns:xlink="http://www.w3.org/1999/xlink" x="0px" y="0px"
	 width="100%" viewBox="0 0 770 786" enable-background="new 0 0 770 786" xml:space="preserve">
<path fill="#32382C" opacity="1.000000" stroke="none" 
	d="
M705.026978,262.912903 
	C705.060669,264.744446 705.123901,266.575958 705.123962,268.407501 
	C705.128784,372.701202 705.092468,476.994934 705.243164,581.288391 
	C705.250061,586.060547 703.815002,588.717651 699.731995,591.135193 
	C645.805481,623.065308 591.983948,655.172791 538.125122,687.217224 
	C487.977234,717.053711 437.816101,746.867859 387.330261,776.316162 
	C387.000977,742.342773 387.002258,708.745056 387.315369,674.981934 
	C421.064911,655.328064 454.511505,635.854736 487.938049,616.346924 
	C524.949890,594.746704 561.958984,573.141724 598.933655,551.478210 
	C608.076904,546.121155 617.082764,540.529602 626.518066,534.811646 
	C626.898682,460.406372 626.912903,386.235413 627.286926,312.026611 
	C628.834656,311.403534 630.095947,310.931488 631.199707,310.216400 
	C651.148438,297.292053 671.060974,284.311737 691.024902,271.411041 
	C695.608704,268.449005 700.355286,265.738922 705.026978,262.912903 
z"/>
<path fill="#FFFFFF" opacity="1.000000" stroke="none" 
	d="
M626.927185,312.064453 
	C626.912903,386.235413 626.898682,460.406372 626.345215,534.493530 
	C600.800537,520.257874 575.824280,506.053864 550.754822,492.016235 
	C547.377563,490.125153 545.930603,488.094330 545.945984,483.978333 
	C546.124512,436.321991 546.111694,388.664581 545.931152,341.008240 
	C545.920410,338.166687 544.664612,334.875122 542.947876,332.566589 
	C529.087891,313.928650 515.005249,295.455750 500.939056,276.971680 
	C478.347351,247.284286 455.716217,217.626907 432.999207,187.624115 
	C431.242584,185.101166 429.588470,182.910934 427.886932,180.657913 
	C414.054077,188.943146 400.649933,196.913971 387.305817,204.984024 
	C378.111725,210.544266 369.000732,216.241959 359.906982,221.875427 
	C359.961304,221.872620 359.932098,221.767792 359.598877,221.686417 
	C358.774109,222.033066 358.282562,222.461090 357.483795,223.053894 
	C354.786011,224.531250 352.395416,225.843842 349.688293,227.016571 
	C338.721375,213.166031 328.026428,199.489609 317.433533,185.734619 
	C307.553162,172.904831 297.781250,159.991531 287.961578,147.114990 
	C313.622528,131.784576 339.270813,116.432945 364.948242,101.130188 
	C387.354553,87.776894 409.793640,74.478676 432.701599,61.398994 
	C433.837555,62.391689 434.531250,63.109856 435.136841,63.895905 
	C459.418152,95.413429 483.682495,126.944054 507.968170,158.458221 
	C538.926941,198.631592 569.878601,238.810471 600.885620,278.946594 
	C609.470825,290.059509 618.241577,301.029114 626.927185,312.064453 
z"/>
<path fill="#FFFFFF" opacity="1.000000" stroke="none" 
	d="
M68.132690,394.978119 
	C68.088303,356.992249 68.004440,319.006226 68.132332,281.020935 
	C68.137917,279.362885 69.689720,277.050018 71.186844,276.153137 
	C114.282745,250.335495 157.462036,224.657043 200.637466,198.972214 
	C202.466873,197.883896 204.388092,196.949860 206.924896,196.057632 
	C220.321976,212.525375 233.057419,228.881973 245.800064,245.232956 
	C270.277100,276.641174 294.739471,308.060883 319.243011,339.448425 
	C342.819977,369.649048 366.441254,399.815063 390.023499,430.464478 
	C389.993042,482.936920 389.982178,534.941162 389.614075,586.978149 
	C362.173798,570.533386 335.128204,553.993530 307.957214,537.662170 
	C304.785126,535.755554 303.897125,533.683167 303.916138,530.142151 
	C304.066223,502.170685 304.070709,474.197571 303.878723,446.226624 
	C303.861420,443.704010 302.705444,440.756683 301.133850,438.744080 
	C285.203064,418.343018 269.101562,398.074951 252.995926,377.810913 
	C238.136993,359.115509 223.214493,340.470642 208.211182,321.466492 
	C206.382233,319.000183 204.662094,316.870850 202.882156,314.667480 
	C184.409409,325.658264 166.282089,336.381348 148.220016,347.213257 
	C137.399979,353.702118 126.681984,360.361145 115.949722,366.961945 
	C115.981323,366.980194 115.986008,366.907379 115.665634,366.928650 
	C114.868988,367.285980 114.392723,367.622009 113.950119,367.970123 
	C113.983772,367.982208 113.986961,367.910767 113.677315,367.965027 
	C113.175888,368.318085 112.984108,368.616852 112.868736,368.936554 
	C112.945145,368.957489 112.972694,368.801483 112.644493,368.719910 
	C111.840729,369.056030 111.365173,369.473755 110.564468,370.041504 
	C96.457993,378.454193 82.676659,386.716827 68.704651,394.986053 
	C68.513985,394.992676 68.132690,394.978119 68.132690,394.978119 
z"/>
<path fill="#497460" opacity="1.000000" stroke="none" 
	d="
M68.084908,395.444214 
	C68.132690,394.978119 68.513985,394.992676 68.909775,395.262329 
	C84.753052,404.652527 100.175629,413.815613 115.656151,422.879730 
	C127.402229,429.757263 139.222107,436.508728 151.006775,443.756775 
	C151.002960,473.214386 150.985001,502.231628 151.037506,531.248718 
	C151.040970,533.160217 151.582352,535.070862 152.062988,537.271729 
	C175.898361,551.425964 199.541870,565.294434 223.190643,579.153870 
	C277.793610,611.153992 332.399109,643.149780 387.003540,675.147339 
	C387.002258,708.745056 387.000977,742.342773 386.999878,776.395264 
	C363.686127,763.044434 340.353607,749.270081 317.061951,735.427063 
	C260.755707,701.962341 204.460770,668.478577 148.177032,634.976074 
	C122.605042,619.754639 97.096046,604.427002 71.481071,589.278381 
	C68.780418,587.681213 67.949379,585.824219 67.952957,582.848389 
	C68.027771,520.535706 68.024796,458.223022 68.084908,395.444214 
z"/>
<path fill="#497460" opacity="1.000000" stroke="none" 
	d="
M627.286926,312.026611 
	C618.241577,301.029114 609.470825,290.059509 600.885620,278.946594 
	C569.878601,238.810471 538.926941,198.631592 507.968170,158.458221 
	C483.682495,126.944054 459.418152,95.413429 435.136841,63.895905 
	C434.531250,63.109856 433.837555,62.391689 433.039429,61.331665 
	C454.385529,48.106735 475.874207,35.187134 497.370941,22.280914 
	C502.355408,19.288322 507.411774,16.412802 512.346680,13.341479 
	C514.623657,11.924376 516.057800,12.214389 517.713501,14.405020 
	C539.730286,43.536541 561.820923,72.612289 583.902039,101.695183 
	C614.109131,141.480698 644.324341,181.260071 674.535095,221.042755 
	C684.070923,233.599884 693.615906,246.150146 703.115967,258.734314 
	C703.900757,259.773926 704.371704,261.050446 705.007751,262.564880 
	C700.355286,265.738922 695.608704,268.449005 691.024902,271.411041 
	C671.060974,284.311737 651.148438,297.292053 631.199707,310.216400 
	C630.095947,310.931488 628.834656,311.403534 627.286926,312.026611 
z"/>
<path fill="#497460" opacity="1.000000" stroke="none" 
	d="
M390.043060,429.996277 
	C366.441254,399.815063 342.819977,369.649048 319.243011,339.448425 
	C294.739471,308.060883 270.277100,276.641174 245.800064,245.232956 
	C233.057419,228.881973 220.321976,212.525375 207.286774,195.991516 
	C215.412872,190.592896 223.777420,185.277527 232.269958,180.175171 
	C250.587891,169.169708 268.971558,158.273636 287.644958,147.223907 
	C297.781250,159.991531 307.553162,172.904831 317.433533,185.734619 
	C328.026428,199.489609 338.721375,213.166031 349.823334,227.320236 
	C360.607361,241.153656 370.928253,254.552490 381.274536,267.931732 
	C406.228424,300.200897 431.227509,332.435211 456.126251,364.746857 
	C460.950073,371.006775 465.400909,377.554138 469.702057,384.110138 
	C457.449066,391.148132 445.524139,398.055908 433.584900,404.938721 
	C419.077240,413.302185 404.557526,421.644684 390.043060,429.996277 
z"/>

<path fill="#171C10" opacity="1.000000" stroke="none" 
	d="
M432.999207,187.624115 
	C422.217224,193.223602 411.386078,198.604355 400.434540,203.727753 
	C387.213806,209.912720 373.891022,215.879471 360.232513,221.909454 
	C369.000732,216.241959 378.111725,210.544266 387.305817,204.984024 
	C400.649933,196.913971 414.054077,188.943146 427.886932,180.657913 
	C429.588470,182.910934 431.242584,185.101166 432.999207,187.624115 
z"/>
<path fill="#171C10" opacity="1.000000" stroke="none" 
	d="
M359.598877,221.686401 
	C359.446564,222.157608 358.961060,222.547440 358.133301,222.913193 
	C358.282562,222.461090 358.774109,222.033066 359.598877,221.686401 
z"/>
<path fill="#32382C" opacity="1.000000" stroke="none" 
	d="
M469.702057,384.110138 
	C470.057892,433.400299 470.111115,482.831757 470.037109,532.263000 
	C470.034790,533.801697 469.145172,535.995178 467.946747,536.779480 
	C442.252594,553.594788 416.455078,570.252258 390.324463,586.942871 
	C389.982178,534.941162 389.993042,482.936920 390.023499,430.464478 
	C404.557526,421.644684 419.077240,413.302185 433.584900,404.938721 
	C445.524139,398.055908 457.449066,391.148132 469.702057,384.110138 
z"/>
<path fill="#161B0F" opacity="1.000000" stroke="none" 
	d="
M208.211166,321.466492 
	C197.541977,327.236084 186.780258,332.701324 175.982300,338.094025 
	C157.757736,347.195709 139.514984,356.260986 121.263405,365.308350 
	C119.799377,366.034088 118.208191,366.503357 116.297104,367.017761 
	C126.681984,360.361145 137.399979,353.702118 148.220016,347.213257 
	C166.282089,336.381348 184.409409,325.658264 202.882156,314.667480 
	C204.662094,316.870850 206.382233,319.000183 208.211166,321.466492 
z"/>
<path fill="#161B0F" opacity="1.000000" stroke="none" 
	d="
M115.665634,366.928650 
	C115.515694,367.286011 115.045387,367.664642 114.245773,368.000671 
	C114.392723,367.622009 114.868988,367.285980 115.665634,366.928650 
z"/>
<path fill="#161B0F" opacity="1.000000" stroke="none" 
	d="
M112.644493,368.719910 
	C112.493614,369.173187 112.014534,369.544891 111.212524,369.904022 
	C111.365173,369.473755 111.840729,369.056030 112.644493,368.719910 
z"/>
<path fill="#161B0F" opacity="1.000000" stroke="none" 
	d="
M113.677322,367.965027 
	C113.780090,368.207458 113.573204,368.504120 113.079323,368.858215 
	C112.984108,368.616852 113.175888,368.318085 113.677322,367.965027 
z"/>
<path fill="#32382C" opacity="1.000000" stroke="none" 
	d="
M151.006775,443.756775 
	C166.477859,434.231995 181.964615,425.178162 197.409653,416.053741 
	C209.983643,408.625397 222.507675,401.112518 235.610596,393.305420 
	C235.773254,395.035004 235.984863,396.240417 235.985626,397.445923 
	C236.004074,426.588043 235.929062,455.730560 236.091888,484.871765 
	C236.111710,488.421539 234.812897,490.091919 231.865021,491.737305 
	C205.311356,506.558624 178.851089,521.547180 152.118469,536.734253 
	C151.582352,535.070862 151.040970,533.160217 151.037506,531.248718 
	C150.985001,502.231628 151.002960,473.214386 151.006775,443.756775 
z"/>
</svg>