<svg xmlns="http://www.w3.org/2000/svg" version="1.0" width="1024" height="1024" preserveAspectRatio="xMidYMid meet" style=""><rect id="backgroundrect" width="100%" height="100%" x="0" y="0" fill="none" stroke="none"/>


<g class="currentLayer" style=""><title>Layer 1</title><g transform="translate(0,1024) scale(0.10000000149011612,-0.10000000149011612) " fill="#872223" stroke="#ffffff" id="svg_1" class="" fill-opacity="1" stroke-opacity="1">
<path d="M2078.78851243449,10203.212886527808 c-531.5753677526186,-70.39781897264407 -1012.8665790962054,-320.3819108346863 -1393.5894776217292,-725.5285424731687 c-285.90134643992184,-304.5783188204193 -478.41783097735663,-683.8645271628285 -571.8026928798437,-1124.92841337919 c-30.170493845418893,-142.23232812840337 -30.170493845418893,-163.78268087513115 -34.48056439476444,-3117.617697359952 c-4.310070549345556,-2022.859777826181 0,-3028.542906006811 10.0568312818063,-3144.91481083914 c68.96112878952889,-780.1227694315455 482.7279015267023,-1415.1398303684575 1163.7190483232998,-1787.2425877952908 c137.92225757905777,-74.70788952198964 364.919306511257,-165.2193710582463 511.46170518900595,-202.57331581924106 c297.3948679048434,-76.14457970510483 178.14958270628293,-73.27119933887447 3361.8550284895346,-73.27119933887447 c3219.6227003611307,0 3091.757274063879,-2.8733803662303705 3389.1521419687224,80.4546502544504 c550.2523401331161,155.16253977644004 999.9363674481691,474.10776042801115 1303.0779960854732,925.2284779261796 c159.47261032578555,237.05388021400557 274.4078249750003,512.8983953721211 336.18550284895343,811.7299534600797 c25.86042329607333,123.55535574790595 27.29711347918852,255.73085259450298 27.29711347918852,3275.6536175026217 l0,3146.3515010222563 l-37.35394476099482,158.03592014267036 c-41.66401531034038,172.40282197382223 -120.68197538167557,396.5264905397912 -189.64310417120444,531.5753677526186 c-58.9042975077226,117.8085950154452 -219.8135980166234,351.98909486322043 -333.31212248272305,485.60128189293266 c-288.77472680615233,339.05888321518376 -771.5026283328544,623.5235394719907 -1235.5535574790597,731.2753032056291 l-143.6690183115185,31.607184028534075 l-3060.1500900353444,2.8733803662303705 c-1683.8008946109967,1.4366901831151855 -3078.8270624158426,-1.4366901831151855 -3103.2507955287997,-4.310070549345556 zm5774.057845939929,-1384.9693365230387 c14.366901831151852,-90.5114815362567 60.340987690837785,-212.63014710104744 102.00500300117818,-265.7876838763093 c47.41077604280112,-61.777677873952975 163.78268087513115,-129.30211648036666 262.914303510079,-150.85246922709445 c40.2273251272252,-10.0568312818063 74.70788952198964,-24.42373311295815 74.70788952198964,-34.48056439476444 c0,-8.62014109869111 -37.35394476099482,-27.29711347918852 -81.89134043756557,-41.66401531034038 c-107.75176373363888,-34.48056439476444 -150.85246922709445,-56.030917141492225 -212.63014710104744,-112.06183428298445 c-64.65105824018333,-56.030917141492225 -90.5114815362567,-104.87838336740853 -129.30211648036666,-241.36395076335114 c-15.80359201426704,-58.9042975077226 -35.917254577879625,-106.31507355052372 -43.10070549345556,-104.87838336740853 c-7.183450915575926,1.4366901831151855 -24.42373311295815,48.8474662259163 -38.79063494411001,106.31507355052372 c-48.8474662259163,195.3898649036652 -130.73880666348188,281.5912758905763 -330.4387421164926,346.2423341307597 c-53.15753677526186,17.24028219738222 -96.25824226871737,38.79063494411001 -93.38486190248703,45.97408585968592 c2.8733803662303705,8.62014109869111 40.2273251272252,25.86042329607333 83.32803062068076,37.35394476099482 c216.940217650393,66.0877484232985 317.50853046845594,181.0229630725134 350.55240468010527,406.58332182159745 c12.930211648036664,83.32803062068076 43.10070549345556,89.07479135314146 56.030917141492225,8.62014109869111 zm-2193.825909616888,-494.2214229916238 c306.0150090035345,-43.10070549345556 564.6192419642678,-122.11866556479072 844.7738276717287,-258.6042329607333 c439.6271960332468,-212.63014710104744 808.8565730938492,-520.081846287697 1104.8147508155778,-918.0450270106036 c109.18845391675409,-147.97908886086407 232.74380966466006,-349.11571449699005 219.8135980166234,-362.0459261450268 c-2.8733803662303705,-4.310070549345556 -22.98704292984296,-2.8733803662303705 -44.53739567657073,2.8733803662303705 c-24.42373311295815,5.74676073246074 -77.58126988822002,60.340987690837785 -158.03592014267036,162.34599069201593 c-389.3430396242153,494.2214229916238 -781.5594596146608,793.0529810795824 -1291.5844746205516,984.1327754339019 c-317.50853046845594,119.24528519856037 -586.1695947109957,159.47261032578555 -982.6960852507867,147.97908886086407 c-288.77472680615233,-8.62014109869111 -452.5574076812833,-30.170493845418893 -703.9781897264409,-94.82155208560222 c-893.6212938976454,-229.87042929842963 -1597.599483624086,-880.6910822496084 -1916.544704275657,-1774.3123761472536 l-63.21436805706816,-176.7128925231678 l-57.46760732460741,5.74676073246074 c-31.607184028534075,2.8733803662303705 -97.6949324518326,0 -147.97908886086407,-7.183450915575926 l-90.5114815362567,-12.930211648036664 l8.62014109869111,44.53739567657073 c27.29711347918852,135.04887721282742 84.76472080379594,340.4955733982989 117.8085950154452,423.8236040189796 c110.62514409986926,281.5912758905763 298.83155808795857,590.4796652603412 507.1516346396604,839.0270669392683 c446.8106469488227,531.5753677526186 1179.522640337567,926.6651681092944 1853.3303362185889,999.9363674481691 c83.32803062068076,8.62014109869111 173.83951215693745,18.67697238049741 201.13662563612593,21.55035274672778 c90.5114815362567,10.0568312818063 449.6840273150529,-5.74676073246074 599.0998063590323,-27.29711347918852 zm2818.7861392719938,-397.9631807229064 c31.607184028534075,-126.42873611413631 100.56831281806296,-195.3898649036652 228.43373911531447,-229.87042929842963 c58.9042975077226,-17.24028219738222 84.76472080379594,-54.59422695837704 35.917254577879625,-54.59422695837704 c-45.97408585968592,0 -170.96613179070712,-67.52443860641371 -204.01000600235636,-109.18845391675409 c-17.24028219738222,-21.55035274672778 -43.10070549345556,-77.58126988822002 -56.030917141492225,-123.55535574790595 c-12.930211648036664,-45.97408585968592 -28.733803662303703,-83.32803062068076 -33.04387421164925,-83.32803062068076 c-4.310070549345556,0 -15.80359201426704,35.917254577879625 -25.86042329607333,79.01796007133518 c-10.0568312818063,43.10070549345556 -34.48056439476444,99.1316226349478 -56.030917141492225,124.99204593102114 c-37.35394476099482,44.53739567657073 -160.9093005089008,112.06183428298445 -206.88338636858663,112.06183428298445 c-51.720846592146664,0 -24.42373311295815,25.86042329607333 58.9042975077226,56.030917141492225 c117.8085950154452,43.10070549345556 166.65606124136153,91.94817171937184 198.2632452698956,199.69993545301074 c14.366901831151852,48.8474662259163 30.170493845418893,89.07479135314146 34.48056439476444,89.07479135314146 c5.74676073246074,0 17.24028219738222,-27.29711347918852 25.86042329607333,-60.340987690837785 zm-2738.3314890175434,11.49352146492148 c87.63810117002632,-25.86042329607333 124.99204593102114,-58.9042975077226 124.99204593102114,-107.75176373363888 c0,-61.777677873952975 -34.48056439476444,-93.38486190248703 -143.6690183115185,-136.4855673959426 c-96.25824226871737,-37.35394476099482 -107.75176373363888,-47.41077604280112 -159.47261032578555,-127.86542629725149 c-30.170493845418893,-47.41077604280112 -56.030917141492225,-91.94817171937184 -56.030917141492225,-100.56831281806296 c0,-30.170493845418893 -61.777677873952975,-96.25824226871737 -90.5114815362567,-96.25824226871737 c-99.1316226349478,0 -181.0229630725134,119.24528519856037 -182.4596532556285,262.914303510079 c0,63.21436805706816 -10.0568312818063,103.44169318429331 -43.10070549345556,168.09275142447672 c-51.720846592146664,103.44169318429331 -43.10070549345556,137.92225757905777 40.2273251272252,150.85246922709445 c28.733803662303703,5.74676073246074 60.340987690837785,11.49352146492148 67.52443860641371,15.80359201426704 c34.48056439476444,12.930211648036664 379.28620834240894,-8.62014109869111 442.500576399477,-28.733803662303703 zm-910.8615760950275,-31.607184028534075 c30.170493845418893,-5.74676073246074 54.59422695837704,-25.86042329607333 74.70788952198964,-57.46760732460741 c17.24028219738222,-30.170493845418893 54.59422695837704,-58.9042975077226 94.82155208560222,-77.58126988822002 c90.5114815362567,-40.2273251272252 74.70788952198964,-64.65105824018333 -40.2273251272252,-66.0877484232985 c-123.55535574790595,-1.4366901831151855 -120.68197538167557,0 -77.58126988822002,-50.28415640903149 c50.28415640903149,-60.340987690837785 45.97408585968592,-133.61218702971223 -10.0568312818063,-175.27620234005263 c-35.917254577879625,-27.29711347918852 -45.97408585968592,-27.29711347918852 -116.37190483233003,-11.49352146492148 c-106.31507355052372,22.98704292984296 -132.175496846597,44.53739567657073 -127.86542629725149,106.31507355052372 c2.8733803662303705,43.10070549345556 -1.4366901831151855,51.720846592146664 -35.917254577879625,60.340987690837785 c-48.8474662259163,11.49352146492148 -76.14457970510483,33.04387421164925 -76.14457970510483,58.9042975077226 c0,22.98704292984296 73.27119933887447,63.21436805706816 114.93521464921481,63.21436805706816 c41.66401531034038,0 28.733803662303703,33.04387421164925 -15.80359201426704,43.10070549345556 c-18.67697238049741,4.310070549345556 -35.917254577879625,18.67697238049741 -38.79063494411001,31.607184028534075 c-5.74676073246074,28.733803662303703 34.48056439476444,51.720846592146664 116.37190483233003,68.96112878952889 c81.89134043756557,15.80359201426704 86.20141098691111,15.80359201426704 137.92225757905777,5.74676073246074 zm1837.526744204322,-270.09775442565484 c94.82155208560222,-47.41077604280112 277.28120534123076,-181.0229630725134 403.70994145536696,-294.52148753861303 c218.37690783350817,-193.95317472054998 455.4307880475138,-504.2782542734301 577.5494536123047,-757.1357265017027 c54.59422695837704,-113.49852446609964 142.23232812840337,-351.98909486322043 142.23232812840337,-389.3430396242153 c0,-33.04387421164925 -94.82155208560222,-20.1136625636126 -181.0229630725134,25.86042329607333 c-110.62514409986926,57.46760732460741 -149.41577904397928,94.82155208560222 -149.41577904397928,143.6690183115185 c0,20.1136625636126 -10.0568312818063,45.97408585968592 -21.55035274672778,56.030917141492225 c-11.49352146492148,10.0568312818063 -21.55035274672778,35.917254577879625 -21.55035274672778,58.9042975077226 c0,35.917254577879625 5.74676073246074,41.66401531034038 41.66401531034038,41.66401531034038 c56.030917141492225,0 64.65105824018333,18.67697238049741 25.86042329607333,53.15753677526186 c-44.53739567657073,41.66401531034038 -89.07479135314146,61.777677873952975 -130.73880666348188,61.777677873952975 c-43.10070549345556,0 -45.97408585968592,-10.0568312818063 -15.80359201426704,-66.0877484232985 c11.49352146492148,-22.98704292984296 21.55035274672778,-57.46760732460741 21.55035274672778,-77.58126988822002 c1.4366901831151855,-20.1136625636126 10.0568312818063,-51.720846592146664 21.55035274672778,-71.83450915575925 c28.733803662303703,-50.28415640903149 25.86042329607333,-71.83450915575925 -10.0568312818063,-71.83450915575925 c-81.89134043756557,0 -221.2502881997385,104.87838336740853 -202.57331581924106,152.28915941020966 c4.310070549345556,11.49352146492148 -4.310070549345556,34.48056439476444 -18.67697238049741,51.720846592146664 c-40.2273251272252,44.53739567657073 -192.51648453743474,140.79563794528815 -224.1236685659689,140.79563794528815 c-43.10070549345556,0 -30.170493845418893,-22.98704292984296 28.733803662303703,-48.8474662259163 c77.58126988822002,-35.917254577879625 179.58627288939815,-130.73880666348188 172.40282197382223,-162.34599069201593 c-10.0568312818063,-45.97408585968592 -81.89134043756557,-24.42373311295815 -206.88338636858663,61.777677873952975 c-103.44169318429331,71.83450915575925 -124.99204593102114,80.4546502544504 -169.52944160759188,73.27119933887447 c-93.38486190248703,-14.366901831151852 -130.73880666348188,-54.59422695837704 -186.76972380497406,-201.13662563612593 c-24.42373311295815,-58.9042975077226 -60.340987690837785,-79.01796007133518 -169.52944160759188,-91.94817171937184 c-57.46760732460741,-7.183450915575926 -71.83450915575925,-2.8733803662303705 -102.00500300117818,27.29711347918852 c-37.35394476099482,37.35394476099482 -81.89134043756557,166.65606124136153 -81.89134043756557,239.92726058023592 c0,58.9042975077226 41.66401531034038,80.4546502544504 158.03592014267036,80.4546502544504 c51.720846592146664,0 96.25824226871737,5.74676073246074 100.56831281806296,14.366901831151852 c4.310070549345556,7.183450915575926 -24.42373311295815,31.607184028534075 -64.65105824018333,53.15753677526186 c-104.87838336740853,56.030917141492225 -114.93521464921481,66.0877484232985 -84.76472080379594,99.1316226349478 c12.930211648036664,14.366901831151852 54.59422695837704,35.917254577879625 91.94817171937184,48.8474662259163 c71.83450915575925,24.42373311295815 126.42873611413631,71.83450915575925 163.78268087513115,147.97908886086407 c27.29711347918852,51.720846592146664 44.53739567657073,54.59422695837704 169.52944160759188,30.170493845418893 c68.96112878952889,-14.366901831151852 84.76472080379594,-12.930211648036664 117.8085950154452,8.62014109869111 c24.42373311295815,17.24028219738222 37.35394476099482,37.35394476099482 37.35394476099482,63.21436805706816 c0,53.15753677526186 -56.030917141492225,142.23232812840337 -110.62514409986926,176.7128925231678 l-47.41077604280112,28.733803662303703 l8.62014109869111,-66.0877484232985 c17.24028219738222,-120.68197538167557 -48.8474662259163,-145.10570849463372 -140.79563794528815,-51.720846592146664 c-31.607184028534075,31.607184028534075 -67.52443860641371,57.46760732460741 -79.01796007133518,57.46760732460741 c-11.49352146492148,0 -43.10070549345556,21.55035274672778 -70.39781897264407,48.8474662259163 c-71.83450915575925,71.83450915575925 -67.52443860641371,120.68197538167557 15.80359201426704,191.07979435431972 c45.97408585968592,38.79063494411001 64.65105824018333,64.65105824018333 64.65105824018333,90.5114815362567 c0,68.96112878952889 27.29711347918852,73.27119933887447 126.42873611413631,22.98704292984296 zm-620.6501591057602,-10.0568312818063 c53.15753677526186,-25.86042329607333 63.21436805706816,-76.14457970510483 18.67697238049741,-100.56831281806296 c-64.65105824018333,-34.48056439476444 -260.0409231438485,11.49352146492148 -281.5912758905763,67.52443860641371 c-4.310070549345556,11.49352146492148 1.4366901831151855,30.170493845418893 11.49352146492148,43.10070549345556 c15.80359201426704,18.67697238049741 38.79063494411001,21.55035274672778 113.49852446609964,17.24028219738222 c51.720846592146664,-4.310070549345556 113.49852446609964,-15.80359201426704 137.92225757905777,-27.29711347918852 zm-1807.3562503589035,-27.29711347918852 c139.35894776217302,-63.21436805706816 104.87838336740853,-241.36395076335114 -53.15753677526186,-265.7876838763093 c-74.70788952198964,-12.930211648036664 -94.82155208560222,-25.86042329607333 -99.1316226349478,-70.39781897264407 c-7.183450915575926,-56.030917141492225 20.1136625636126,-80.4546502544504 89.07479135314146,-80.4546502544504 c48.8474662259163,0 68.96112878952889,-8.62014109869111 104.87838336740853,-45.97408585968592 c25.86042329607333,-27.29711347918852 47.41077604280112,-66.0877484232985 50.28415640903149,-90.5114815362567 c7.183450915575926,-66.0877484232985 56.030917141492225,-58.9042975077226 79.01796007133518,10.0568312818063 c10.0568312818063,30.170493845418893 47.41077604280112,90.5114815362567 83.32803062068076,136.4855673959426 c70.39781897264407,90.5114815362567 79.01796007133518,135.04887721282742 43.10070549345556,205.4466961854715 c-20.1136625636126,38.79063494411001 -20.1136625636126,43.10070549345556 10.0568312818063,63.21436805706816 c48.8474662259163,34.48056439476444 67.52443860641371,28.733803662303703 149.41577904397928,-48.8474662259163 l76.14457970510483,-71.83450915575925 l83.32803062068076,8.62014109869111 c68.96112878952889,5.74676073246074 91.94817171937184,2.8733803662303705 130.73880666348188,-21.55035274672778 c37.35394476099482,-24.42373311295815 45.97408585968592,-38.79063494411001 45.97408585968592,-79.01796007133518 c0,-64.65105824018333 35.917254577879625,-104.87838336740853 114.93521464921481,-127.86542629725149 c50.28415640903149,-14.366901831151852 66.0877484232985,-25.86042329607333 68.96112878952889,-53.15753677526186 c4.310070549345556,-20.1136625636126 -4.310070549345556,-41.66401531034038 -20.1136625636126,-53.15753677526186 c-31.607184028534075,-22.98704292984296 -31.607184028534075,-21.55035274672778 70.39781897264407,-67.52443860641371 c58.9042975077226,-25.86042329607333 81.89134043756557,-43.10070549345556 81.89134043756557,-63.21436805706816 c0,-61.777677873952975 -169.52944160759188,-79.01796007133518 -229.87042929842963,-24.42373311295815 c-14.366901831151852,12.930211648036664 -28.733803662303703,41.66401531034038 -31.607184028534075,63.21436805706816 c-4.310070549345556,34.48056439476444 -10.0568312818063,37.35394476099482 -84.76472080379594,41.66401531034038 c-63.21436805706816,2.8733803662303705 -87.63810117002632,-1.4366901831151855 -114.93521464921481,-24.42373311295815 c-44.53739567657073,-35.917254577879625 -27.29711347918852,-68.96112878952889 48.8474662259163,-94.82155208560222 c117.8085950154452,-40.2273251272252 123.55535574790595,-74.70788952198964 22.98704292984296,-129.30211648036666 c-63.21436805706816,-33.04387421164925 -83.32803062068076,-37.35394476099482 -145.10570849463372,-30.170493845418893 c-68.96112878952889,10.0568312818063 -74.70788952198964,7.183450915575926 -149.41577904397928,-50.28415640903149 c-113.49852446609964,-87.63810117002632 -224.1236685659689,-211.19345691793217 -271.53444460877,-306.0150090035345 c-22.98704292984296,-45.97408585968592 -63.21436805706816,-102.00500300117818 -90.5114815362567,-124.99204593102114 c-68.96112878952889,-60.340987690837785 -89.07479135314146,-120.68197538167557 -89.07479135314146,-262.914303510079 c0,-137.92225757905777 -7.183450915575926,-166.65606124136153 -43.10070549345556,-166.65606124136153 c-35.917254577879625,0 -51.720846592146664,25.86042329607333 -70.39781897264407,112.06183428298445 c-21.55035274672778,103.44169318429331 -38.79063494411001,130.73880666348188 -94.82155208560222,155.16253977644004 c-44.53739567657073,17.24028219738222 -61.777677873952975,15.80359201426704 -189.64310417120444,-17.24028219738222 c-206.88338636858663,-53.15753677526186 -238.49057039712073,-80.4546502544504 -264.350993693194,-234.18049984777517 c-15.80359201426704,-84.76472080379594 -14.366901831151852,-91.94817171937184 24.42373311295815,-170.96613179070712 c22.98704292984296,-44.53739567657073 51.720846592146664,-83.32803062068076 64.65105824018333,-86.20141098691111 c12.930211648036664,-2.8733803662303705 67.52443860641371,25.86042329607333 122.11866556479072,63.21436805706816 c76.14457970510483,51.720846592146664 112.06183428298445,68.96112878952889 156.59922995955523,68.96112878952889 c57.46760732460741,1.4366901831151855 57.46760732460741,1.4366901831151855 53.15753677526186,-48.8474662259163 c-2.8733803662303705,-27.29711347918852 -18.67697238049741,-73.27119933887447 -33.04387421164925,-103.44169318429331 c-38.79063494411001,-77.58126988822002 -24.42373311295815,-119.24528519856037 51.720846592146664,-153.72584959332488 c70.39781897264407,-31.607184028534075 103.44169318429331,-81.89134043756557 117.8085950154452,-181.0229630725134 c10.0568312818063,-79.01796007133518 22.98704292984296,-90.5114815362567 129.30211648036666,-114.93521464921481 l83.32803062068076,-20.1136625636126 l34.48056439476444,38.79063494411001 c120.68197538167557,137.92225757905777 173.83951215693745,189.64310417120444 191.07979435431972,189.64310417120444 c11.49352146492148,0 43.10070549345556,-22.98704292984296 70.39781897264407,-51.720846592146664 c43.10070549345556,-44.53739567657073 54.59422695837704,-50.28415640903149 99.1316226349478,-43.10070549345556 c159.47261032578555,25.86042329607333 182.4596532556285,25.86042329607333 247.1107114958119,-1.4366901831151855 c35.917254577879625,-17.24028219738222 87.63810117002632,-57.46760732460741 120.68197538167557,-96.25824226871737 c30.170493845418893,-37.35394476099482 71.83450915575925,-87.63810117002632 91.94817171937184,-112.06183428298445 c30.170493845418893,-34.48056439476444 54.59422695837704,-45.97408585968592 143.6690183115185,-63.21436805706816 c114.93521464921481,-21.55035274672778 158.03592014267036,-51.720846592146664 158.03592014267036,-113.49852446609964 c0,-27.29711347918852 -25.86042329607333,-41.66401531034038 -189.64310417120444,-107.75176373363888 c-372.1027574268331,-147.97908886086407 -841.9004473054983,-287.338036623037 -984.1327754339019,-291.6481071723825 l-66.0877484232985,-2.8733803662303705 l-27.29711347918852,86.20141098691111 c-25.86042329607333,79.01796007133518 -27.29711347918852,89.07479135314146 -5.74676073246074,132.175496846597 c12.930211648036664,27.29711347918852 22.98704292984296,76.14457970510483 22.98704292984296,112.06183428298445 c0,34.48056439476444 11.49352146492148,81.89134043756557 24.42373311295815,104.87838336740853 c37.35394476099482,64.65105824018333 11.49352146492148,112.06183428298445 -70.39781897264407,124.99204593102114 c-123.55535574790595,18.67697238049741 -173.83951215693745,58.9042975077226 -254.2941624113878,201.13662563612593 c-40.2273251272252,73.27119933887447 -96.25824226871737,112.06183428298445 -221.2502881997385,152.28915941020966 c-89.07479135314146,28.733803662303703 -102.00500300117818,38.79063494411001 -145.10570849463372,104.87838336740853 c-80.4546502544504,124.99204593102114 -193.95317472054998,251.42078204515747 -307.45169918664976,341.93226358141425 c-60.340987690837785,47.41077604280112 -114.93521464921481,94.82155208560222 -119.24528519856037,103.44169318429331 c-5.74676073246074,8.62014109869111 -27.29711347918852,93.38486190248703 -48.8474662259163,188.20641398808925 c-21.55035274672778,94.82155208560222 -44.53739567657073,178.14958270628293 -50.28415640903149,185.3330336218589 c-7.183450915575926,5.74676073246074 -27.29711347918852,-53.15753677526186 -44.53739567657073,-130.73880666348188 l-34.48056439476444,-143.6690183115185 l-53.15753677526186,21.55035274672778 c-30.170493845418893,11.49352146492148 -54.59422695837704,28.733803662303703 -54.59422695837704,38.79063494411001 c0,22.98704292984296 60.340987690837785,195.3898649036652 113.49852446609964,321.8186010178016 c219.8135980166234,522.9552266539275 612.030018007069,992.752916532593 1030.1068612935876,1229.806796746599 c124.99204593102114,71.83450915575925 158.03592014267036,76.14457970510483 247.1107114958119,35.917254577879625 zm2018.5497072768355,-320.3819108346863 c17.24028219738222,-18.67697238049741 43.10070549345556,-53.15753677526186 56.030917141492225,-79.01796007133518 c14.366901831151852,-27.29711347918852 51.720846592146664,-58.9042975077226 94.82155208560222,-80.4546502544504 c80.4546502544504,-41.66401531034038 100.56831281806296,-73.27119933887447 66.0877484232985,-110.62514409986926 c-33.04387421164925,-37.35394476099482 -147.97908886086407,-61.777677873952975 -198.2632452698956,-41.66401531034038 c-34.48056439476444,12.930211648036664 -38.79063494411001,20.1136625636126 -31.607184028534075,54.59422695837704 c28.733803662303703,126.42873611413631 28.733803662303703,124.99204593102114 -24.42373311295815,160.9093005089008 c-47.41077604280112,33.04387421164925 -81.89134043756557,81.89134043756557 -81.89134043756557,114.93521464921481 c0,28.733803662303703 87.63810117002632,14.366901831151852 119.24528519856037,-18.67697238049741 zm-79.01796007133518,-109.18845391675409 c11.49352146492148,-7.183450915575926 17.24028219738222,-31.607184028534075 14.366901831151852,-60.340987690837785 c-2.8733803662303705,-37.35394476099482 -12.930211648036664,-51.720846592146664 -44.53739567657073,-61.777677873952975 c-48.8474662259163,-17.24028219738222 -87.63810117002632,1.4366901831151855 -93.38486190248703,47.41077604280112 c-10.0568312818063,61.777677873952975 68.96112878952889,109.18845391675409 123.55535574790595,74.70788952198964 zm2884.873887695292,-255.73085259450298 c-27.29711347918852,-386.46965925798486 -139.35894776217302,-974.0759441520956 -191.07979435431972,-991.3162263494778 c-8.62014109869111,-2.8733803662303705 -68.96112878952889,63.21436805706816 -135.04887721282742,146.54239867774893 c-66.0877484232985,83.32803062068076 -123.55535574790595,150.85246922709445 -127.86542629725149,150.85246922709445 c-4.310070549345556,-1.4366901831151855 -54.59422695837704,-71.83450915575925 -113.49852446609964,-158.03592014267036 c-439.6271960332468,-655.1307235005246 -1152.2255268583788,-1278.6542629725145 -2040.1000600235636,-1787.2425877952908 c-910.8615760950275,-522.9552266539275 -1951.0252686704214,-872.0709411509175 -3027.106215823696,-1014.3032692793208 c-122.11866556479072,-17.24028219738222 -235.6171900308904,-28.733803662303703 -248.54740167892706,-25.86042329607333 c-20.1136625636126,2.8733803662303705 5.74676073246074,53.15753677526186 126.42873611413631,249.98409186204228 c83.32803062068076,136.4855673959426 192.51648453743474,324.69198138403186 242.80064094646633,420.9502236527492 c67.52443860641371,129.30211648036666 97.6949324518326,173.83951215693745 117.8085950154452,173.83951215693745 c89.07479135314146,0 722.6551621069383,142.23232812840337 1035.8536220260485,231.3071194815449 c1218.3132752816773,347.6790243138749 2542.941624113878,1080.3910177026194 3244.046433474089,1794.4260387108664 c152.28915941020966,155.16253977644004 331.8754322996079,359.1725457787963 363.4826163281417,413.76677273717326 l25.86042329607333,43.10070549345556 l-169.52944160759188,112.06183428298445 c-91.94817171937184,63.21436805706816 -168.09275142447672,122.11866556479072 -168.09275142447672,133.61218702971223 c0,12.930211648036664 33.04387421164925,31.607184028534075 86.20141098691111,47.41077604280112 c214.06683728416266,63.21436805706816 837.5903767561532,193.95317472054998 939.5953797573311,196.8265550867804 l48.8474662259163,1.4366901831151855 l-10.0568312818063,-139.35894776217302 zm-1959.6454097691123,-517.2084659214667 c14.366901831151852,-12.930211648036664 25.86042329607333,-34.48056439476444 25.86042329607333,-50.28415640903149 c0,-20.1136625636126 -11.49352146492148,-25.86042329607333 -58.9042975077226,-25.86042329607333 c-94.82155208560222,0 -140.79563794528815,38.79063494411001 -96.25824226871737,83.32803062068076 c24.42373311295815,24.42373311295815 97.6949324518326,21.55035274672778 129.30211648036666,-7.183450915575926 zm-205.4466961854715,-64.65105824018333 c8.62014109869111,-10.0568312818063 31.607184028534075,-40.2273251272252 53.15753677526186,-64.65105824018333 c20.1136625636126,-25.86042329607333 43.10070549345556,-47.41077604280112 50.28415640903149,-47.41077604280112 c7.183450915575926,0 47.41077604280112,-22.98704292984296 90.5114815362567,-50.28415640903149 c97.6949324518326,-63.21436805706816 143.6690183115185,-70.39781897264407 149.41577904397928,-25.86042329607333 c2.8733803662303705,20.1136625636126 17.24028219738222,35.917254577879625 35.917254577879625,40.2273251272252 c40.2273251272252,10.0568312818063 232.74380966466006,-38.79063494411001 310.3250795528801,-79.01796007133518 c48.8474662259163,-24.42373311295815 58.9042975077226,-37.35394476099482 58.9042975077226,-70.39781897264407 c0,-37.35394476099482 -20.1136625636126,-57.46760732460741 -175.27620234005263,-170.96613179070712 c-208.3200765517019,-150.85246922709445 -374.9761377930632,-261.47761332696376 -600.5364965421472,-400.8365610891368 c-179.58627288939815,-110.62514409986926 -568.9293125136135,-334.74881266583816 -580.4228339785349,-334.74881266583816 c-4.310070549345556,0 -20.1136625636126,30.170493845418893 -37.35394476099482,67.52443860641371 c-15.80359201426704,37.35394476099482 -67.52443860641371,107.75176373363888 -114.93521464921481,156.59922995955523 c-47.41077604280112,48.8474662259163 -86.20141098691111,96.25824226871737 -86.20141098691111,104.87838336740853 c0,8.62014109869111 11.49352146492148,37.35394476099482 24.42373311295815,64.65105824018333 c20.1136625636126,43.10070549345556 21.55035274672778,61.777677873952975 7.183450915575926,124.99204593102114 c-22.98704292984296,99.1316226349478 -21.55035274672778,172.40282197382223 5.74676073246074,211.19345691793217 c11.49352146492148,17.24028219738222 57.46760732460741,54.59422695837704 100.56831281806296,81.89134043756557 c80.4546502544504,51.720846592146664 106.31507355052372,91.94817171937184 135.04887721282742,204.01000600235636 c12.930211648036664,48.8474662259163 22.98704292984296,63.21436805706816 54.59422695837704,70.39781897264407 c122.11866556479072,27.29711347918852 156.59922995955523,40.2273251272252 186.76972380497406,67.52443860641371 c18.67697238049741,17.24028219738222 60.340987690837785,38.79063494411001 93.38486190248703,48.8474662259163 c83.32803062068076,21.55035274672778 221.2502881997385,22.98704292984296 238.49057039712073,1.4366901831151855 zm-4057.2130771172833,-520.081846287697 c290.21141698926743,-99.1316226349478 515.7717757383516,-303.1416286373041 646.5105824018334,-587.6062848941108 c124.99204593102114,-268.6610642425396 124.99204593102114,-622.0868492888751 2.8733803662303705,-946.778830672907 c-102.00500300117818,-268.6610642425396 -326.1286715671471,-658.004103866755 -703.9781897264409,-1222.6233458310228 c-242.80064094646633,-363.4826163281417 -258.6042329607333,-383.59627889175437 -283.0279660736916,-362.0459261450268 c-71.83450915575925,64.65105824018333 -442.500576399477,616.3400885564145 -600.5364965421472,892.1846037145302 c-237.05388021400557,415.2034629202886 -374.9761377930632,724.0918522900536 -420.9502236527492,946.778830672907 c-122.11866556479072,584.7329045278805 193.95317472054998,1119.1816526467294 762.8824872341635,1295.8945451698976 c94.82155208560222,28.733803662303703 130.73880666348188,33.04387421164925 294.52148753861303,28.733803662303703 c158.03592014267036,-4.310070549345556 204.01000600235636,-11.49352146492148 301.7049384541889,-44.53739567657073 zm1429.5067321996091,-137.92225757905777 c100.56831281806296,-50.28415640903149 113.49852446609964,-66.0877484232985 67.52443860641371,-87.63810117002632 c-45.97408585968592,-21.55035274672778 -193.95317472054998,7.183450915575926 -231.3071194815449,44.53739567657073 c-27.29711347918852,27.29711347918852 -27.29711347918852,28.733803662303703 -1.4366901831151855,57.46760732460741 c34.48056439476444,38.79063494411001 64.65105824018333,35.917254577879625 165.2193710582463,-14.366901831151852 zm301.7049384541889,-90.5114815362567 c48.8474662259163,-24.42373311295815 51.720846592146664,-58.9042975077226 7.183450915575926,-79.01796007133518 c-51.720846592146664,-24.42373311295815 -222.68697838285374,-22.98704292984296 -222.68697838285374,1.4366901831151855 c1.4366901831151855,21.55035274672778 44.53739567657073,74.70788952198964 71.83450915575925,86.20141098691111 c37.35394476099482,14.366901831151852 106.31507355052372,10.0568312818063 143.6690183115185,-8.62014109869111 zm3824.4692674526227,-209.75676673481706 c-33.04387421164925,-44.53739567657073 -71.83450915575925,-56.030917141492225 -83.32803062068076,-24.42373311295815 c-14.366901831151852,35.917254577879625 4.310070549345556,83.32803062068076 54.59422695837704,153.72584959332488 l47.41077604280112,63.21436805706816 l4.310070549345556,-77.58126988822002 c2.8733803662303705,-60.340987690837785 -1.4366901831151855,-87.63810117002632 -22.98704292984296,-114.93521464921481 zm-247.1107114958119,-300.2682482710736 c-60.340987690837785,-620.6501591057602 -284.46465625680673,-1145.042075942803 -693.9213584446345,-1619.149836370814 c-495.6581131747389,-574.676073246074 -1208.2564439998707,-952.5255914053681 -1992.689283980762,-1057.403974772776 c-189.64310417120444,-25.86042329607333 -587.6062848941108,-21.55035274672778 -804.5465025445037,7.183450915575926 c-364.919306511257,48.8474662259163 -636.453751120027,132.175496846597 -969.7658736027503,295.95817772172813 c-260.0409231438485,129.30211648036666 -497.0948033578541,287.338036623037 -455.4307880475138,304.5783188204193 c38.79063494411001,17.24028219738222 502.84156409031493,126.42873611413631 535.8854383019642,126.42873611413631 c15.80359201426704,0 89.07479135314146,-31.607184028534075 160.9093005089008,-70.39781897264407 c392.2164199904454,-211.19345691793217 833.2803062068076,-317.50853046845594 1311.698137184164,-317.50853046845594 c113.49852446609964,0 278.71789552434603,10.0568312818063 367.79268687748737,21.55035274672778 c879.2543920664936,120.68197538167557 1724.028219738222,719.781781740708 2116.244639728668,1501.341241355369 c120.68197538167557,241.36395076335114 235.6171900308904,601.9731867252625 258.6042329607333,818.9134043756554 c10.0568312818063,89.07479135314146 14.366901831151852,97.6949324518326 90.5114815362567,176.7128925231678 l81.89134043756557,83.32803062068076 l4.310070549345556,-54.59422695837704 c2.8733803662303705,-30.170493845418893 -1.4366901831151855,-127.86542629725149 -11.49352146492148,-216.940217650393 zm501.40487390719966,-87.63810117002632 c24.42373311295815,-97.6949324518326 90.5114815362567,-168.09275142447672 186.76972380497406,-199.69993545301074 c43.10070549345556,-14.366901831151852 80.4546502544504,-33.04387421164925 83.32803062068076,-40.2273251272252 c2.8733803662303705,-7.183450915575926 -33.04387421164925,-24.42373311295815 -79.01796007133518,-37.35394476099482 c-100.56831281806296,-30.170493845418893 -155.16253977644004,-83.32803062068076 -191.07979435431972,-186.76972380497406 c-12.930211648036664,-41.66401531034038 -31.607184028534075,-77.58126988822002 -38.79063494411001,-80.4546502544504 c-7.183450915575926,-1.4366901831151855 -17.24028219738222,21.55035274672778 -21.55035274672778,53.15753677526186 c-11.49352146492148,90.5114815362567 -61.777677873952975,158.03592014267036 -145.10570849463372,196.8265550867804 c-40.2273251272252,18.67697238049741 -84.76472080379594,34.48056439476444 -99.1316226349478,34.48056439476444 c-48.8474662259163,0 -15.80359201426704,34.48056439476444 54.59422695837704,57.46760732460741 c97.6949324518326,30.170493845418893 158.03592014267036,90.5114815362567 186.76972380497406,191.07979435431972 c12.930211648036664,44.53739567657073 28.733803662303703,81.89134043756557 34.48056439476444,81.89134043756557 c5.74676073246074,0 18.67697238049741,-31.607184028534075 28.733803662303703,-70.39781897264407 zm-859.1407295028812,-146.54239867774893 c-99.1316226349478,-392.2164199904454 -298.83155808795857,-752.825655952357 -570.3660026967286,-1028.6701711104727 c-122.11866556479072,-124.99204593102114 -150.85246922709445,-147.97908886086407 -188.20641398808925,-147.97908886086407 c-31.607184028534075,0 -54.59422695837704,11.49352146492148 -76.14457970510483,40.2273251272252 c-27.29711347918852,33.04387421164925 -30.170493845418893,50.28415640903149 -22.98704292984296,117.8085950154452 c5.74676073246074,43.10070549345556 14.366901831151852,176.7128925231678 21.55035274672778,294.52148753861303 c5.74676073246074,119.24528519856037 20.1136625636126,232.74380966466006 30.170493845418893,254.2941624113878 c10.0568312818063,21.55035274672778 71.83450915575925,74.70788952198964 142.23232812840337,120.68197538167557 c172.40282197382223,114.93521464921481 446.8106469488227,316.0718402853407 583.296214344765,428.1336745683253 c61.777677873952975,51.720846592146664 116.37190483233003,91.94817171937184 117.8085950154452,89.07479135314146 c2.8733803662303705,-2.8733803662303705 -14.366901831151852,-77.58126988822002 -37.35394476099482,-168.09275142447672 zm-6393.271314862575,-784.4328399808908 c5.74676073246074,-160.9093005089008 7.183450915575926,-172.40282197382223 48.8474662259163,-229.87042929842963 c24.42373311295815,-33.04387421164925 81.89134043756557,-84.76472080379594 129.30211648036666,-114.93521464921481 c173.83951215693745,-110.62514409986926 224.1236685659689,-175.27620234005263 301.7049384541889,-387.90634944109996 c18.67697238049741,-53.15753677526186 33.04387421164925,-99.1316226349478 30.170493845418893,-100.56831281806296 c-10.0568312818063,-10.0568312818063 -209.75676673481706,60.340987690837785 -310.3250795528801,107.75176373363888 c-133.61218702971223,64.65105824018333 -251.42078204515747,178.14958270628293 -310.3250795528801,297.3948679048434 c-37.35394476099482,77.58126988822002 -41.66401531034038,99.1316226349478 -40.2273251272252,222.68697838285374 c0,90.5114815362567 8.62014109869111,158.03592014267036 25.86042329607333,201.13662563612593 c27.29711347918852,74.70788952198964 89.07479135314146,172.40282197382223 107.75176373363888,172.40282197382223 c7.183450915575926,0 14.366901831151852,-76.14457970510483 17.24028219738222,-168.09275142447672 zm4488.220132051838,-294.52148753861303 c-5.74676073246074,-18.67697238049741 -20.1136625636126,-47.41077604280112 -31.607184028534075,-66.0877484232985 c-21.55035274672778,-34.48056439476444 -142.23232812840337,-117.8085950154452 -170.96613179070712,-117.8085950154452 c-34.48056439476444,0 -94.82155208560222,-64.65105824018333 -126.42873611413631,-136.4855673959426 c-37.35394476099482,-81.89134043756557 -76.14457970510483,-116.37190483233003 -191.07979435431972,-165.2193710582463 c-58.9042975077226,-24.42373311295815 -83.32803062068076,-45.97408585968592 -107.75176373363888,-90.5114815362567 c-30.170493845418893,-54.59422695837704 -79.01796007133518,-89.07479135314146 -183.89634343874368,-132.175496846597 c-25.86042329607333,-10.0568312818063 -37.35394476099482,-28.733803662303703 -44.53739567657073,-70.39781897264407 c-11.49352146492148,-71.83450915575925 -43.10070549345556,-94.82155208560222 -132.175496846597,-94.82155208560222 c-60.340987690837785,0 -77.58126988822002,7.183450915575926 -117.8085950154452,47.41077604280112 c-37.35394476099482,37.35394476099482 -50.28415640903149,63.21436805706816 -56.030917141492225,119.24528519856037 c-12.930211648036664,104.87838336740853 -35.917254577879625,252.85747222827263 -45.97408585968592,287.338036623037 c-7.183450915575926,27.29711347918852 5.74676073246074,33.04387421164925 183.89634343874368,77.58126988822002 c293.08479735549787,71.83450915575925 587.6062848941108,179.58627288939815 902.2414349963362,329.0020519333775 c113.49852446609964,54.59422695837704 135.04887721282742,56.030917141492225 122.11866556479072,12.930211648036664 zm-2767.0652926798466,-1146.4787661259181 c22.98704292984296,-79.01796007133518 79.01796007133518,-140.79563794528815 146.54239867774893,-159.47261032578555 c30.170493845418893,-10.0568312818063 56.030917141492225,-21.55035274672778 56.030917141492225,-25.86042329607333 c0,-5.74676073246074 -33.04387421164925,-20.1136625636126 -73.27119933887447,-34.48056439476444 c-77.58126988822002,-28.733803662303703 -120.68197538167557,-79.01796007133518 -136.4855673959426,-163.78268087513115 c-12.930211648036664,-64.65105824018333 -30.170493845418893,-58.9042975077226 -41.66401531034038,12.930211648036664 c-12.930211648036664,74.70788952198964 -67.52443860641371,132.175496846597 -147.97908886086407,156.59922995955523 c-33.04387421164925,10.0568312818063 -60.340987690837785,21.55035274672778 -60.340987690837785,27.29711347918852 c0,5.74676073246074 24.42373311295815,17.24028219738222 54.59422695837704,25.86042329607333 c77.58126988822002,22.98704292984296 129.30211648036666,76.14457970510483 149.41577904397928,152.28915941020966 c10.0568312818063,35.917254577879625 21.55035274672778,66.0877484232985 25.86042329607333,66.0877484232985 c5.74676073246074,0 17.24028219738222,-25.86042329607333 27.29711347918852,-57.46760732460741 zm547.3789597668855,-390.7797298073304 c0,-53.15753677526186 47.41077604280112,-116.37190483233003 100.56831281806296,-133.61218702971223 c56.030917141492225,-18.67697238049741 74.70788952198964,-50.28415640903149 28.733803662303703,-50.28415640903149 c-41.66401531034038,0 -113.49852446609964,-73.27119933887447 -123.55535574790595,-127.86542629725149 c-11.49352146492148,-54.59422695837704 -34.48056439476444,-58.9042975077226 -34.48056439476444,-7.183450915575926 c0,50.28415640903149 -84.76472080379594,135.04887721282742 -135.04887721282742,135.04887721282742 c-50.28415640903149,0 -47.41077604280112,24.42373311295815 5.74676073246074,35.917254577879625 c50.28415640903149,11.49352146492148 113.49852446609964,80.4546502544504 124.99204593102114,137.92225757905777 c10.0568312818063,48.8474662259163 33.04387421164925,56.030917141492225 33.04387421164925,10.0568312818063 z" id="svg_2" fill="#872223" fill-opacity="1" stroke="#ffffff" stroke-opacity="1"/>
<path d="M2394.8603527198297,5707.809303560396 c-150.85246922709445,-24.42373311295815 -329.0020519333775,-102.00500300117818 -445.3739567657075,-196.8265550867804 c-341.93226358141425,-278.71789552434603 -441.0638862163618,-698.2314289939801 -270.09775442565484,-1152.2255268583788 c117.8085950154452,-314.6351501022257 397.9631807229064,-821.786784741886 714.0350210082471,-1295.8945451698976 c63.21436805706816,-97.6949324518326 119.24528519856037,-176.7128925231678 123.55535574790595,-175.27620234005263 c8.62014109869111,0 366.3559966943723,554.5624106824615 504.2782542734301,781.5594596146608 c143.6690183115185,237.05388021400557 303.1416286373041,551.6890303162311 347.6790243138749,689.6112878952889 c57.46760732460741,175.27620234005263 71.83450915575925,278.71789552434603 64.65105824018333,448.2473371319378 c-11.49352146492148,260.0409231438485 -94.82155208560222,445.3739567657075 -284.46465625680673,636.453751120027 c-117.8085950154452,117.8085950154452 -221.2502881997385,179.58627288939815 -380.7228985255241,229.87042929842963 c-99.1316226349478,30.170493845418893 -287.338036623037,47.41077604280112 -373.5394476099481,34.48056439476444 zm301.7049384541889,-183.89634343874368 c114.93521464921481,-30.170493845418893 232.74380966466006,-94.82155208560222 320.3819108346863,-175.27620234005263 l81.89134043756557,-76.14457970510483 l-247.1107114958119,-1.4366901831151855 l-248.54740167892706,0 l0,-100.56831281806296 l0,-100.56831281806296 l308.8883893697649,0 l307.45169918664976,0 l22.98704292984296,-74.70788952198964 c40.2273251272252,-137.92225757905777 67.52443860641371,-127.86542629725149 -308.8883893697649,-123.55535574790595 l-330.4387421164926,4.310070549345556 l0,-96.25824226871737 l0,-97.6949324518326 l329.0020519333775,0 l330.4387421164926,0 l-8.62014109869111,-53.15753677526186 c-4.310070549345556,-30.170493845418893 -15.80359201426704,-77.58126988822002 -25.86042329607333,-104.87838336740853 l-17.24028219738222,-50.28415640903149 l-699.6681191770953,-4.310070549345556 l-699.6681191770953,-2.8733803662303705 l-21.55035274672778,50.28415640903149 c-38.79063494411001,96.25824226871737 -56.030917141492225,255.73085259450298 -37.35394476099482,374.9761377930632 c45.97408585968592,291.6481071723825 275.84451515811554,555.9991008655767 550.2523401331161,629.2703002044514 c99.1316226349478,27.29711347918852 300.2682482710736,28.733803662303703 393.6531101735608,2.8733803662303705 zm321.8186010178016,-1337.5585604802375 l-96.25824226871737,-93.38486190248703 l-409.4567021878277,0 l-409.4567021878277,0 l-97.6949324518326,93.38486190248703 l-99.1316226349478,91.94817171937184 l603.4098769083778,0 l603.4098769083778,1.4366901831151855 l-94.82155208560222,-93.38486190248703 z" id="svg_3" fill="#872223" fill-opacity="1" stroke="#ffffff" stroke-opacity="1"/>
<path d="M2208.0906289148575,5203.531049286965 c4.310070549345556,-135.04887721282742 2.8733803662303705,-126.42873611413631 28.733803662303703,-104.87838336740853 c11.49352146492148,10.0568312818063 21.55035274672778,12.930211648036664 21.55035274672778,5.74676073246074 c0,-5.74676073246074 8.62014109869111,0 18.67697238049741,15.80359201426704 c25.86042329607333,33.04387421164925 45.97408585968592,5.74676073246074 33.04387421164925,-44.53739567657073 c-5.74676073246074,-18.67697238049741 -2.8733803662303705,-34.48056439476444 4.310070549345556,-34.48056439476444 c7.183450915575926,0 17.24028219738222,15.80359201426704 21.55035274672778,35.917254577879625 c5.74676073246074,20.1136625636126 15.80359201426704,35.917254577879625 22.98704292984296,35.917254577879625 c7.183450915575926,0 10.0568312818063,-11.49352146492148 5.74676073246074,-24.42373311295815 c-5.74676073246074,-20.1136625636126 -1.4366901831151855,-18.67697238049741 20.1136625636126,7.183450915575926 c34.48056439476444,37.35394476099482 51.720846592146664,41.66401531034038 40.2273251272252,7.183450915575926 c-5.74676073246074,-15.80359201426704 2.8733803662303705,-11.49352146492148 20.1136625636126,10.0568312818063 c37.35394476099482,47.41077604280112 40.2273251272252,86.20141098691111 4.310070549345556,54.59422695837704 c-31.607184028534075,-28.733803662303703 -113.49852446609964,-45.97408585968592 -124.99204593102114,-28.733803662303703 c-4.310070549345556,7.183450915575926 1.4366901831151855,44.53739567657073 12.930211648036664,83.32803062068076 c25.86042329607333,86.20141098691111 17.24028219738222,97.6949324518326 -20.1136625636126,24.42373311295815 c-15.80359201426704,-31.607184028534075 -37.35394476099482,-64.65105824018333 -48.8474662259163,-73.27119933887447 c-17.24028219738222,-15.80359201426704 -22.98704292984296,-8.62014109869111 -30.170493845418893,43.10070549345556 c-17.24028219738222,109.18845391675409 -33.04387421164925,102.00500300117818 -30.170493845418893,-12.930211648036664 z" id="svg_4" fill="#872223" fill-opacity="1" stroke="#ffffff" stroke-opacity="1"/>
<path d="M2071.6050615189147,5256.688586062225 c0,-5.74676073246074 7.183450915575926,-31.607184028534075 15.80359201426704,-56.030917141492225 c21.55035274672778,-63.21436805706816 -1.4366901831151855,-87.63810117002632 -43.10070549345556,-45.97408585968592 c-37.35394476099482,37.35394476099482 -40.2273251272252,8.62014109869111 -2.8733803662303705,-47.41077604280112 c24.42373311295815,-37.35394476099482 25.86042329607333,-44.53739567657073 5.74676073246074,-63.21436805706816 c-15.80359201426704,-17.24028219738222 -27.29711347918852,-18.67697238049741 -45.97408585968592,-7.183450915575926 c-27.29711347918852,17.24028219738222 -97.6949324518326,8.62014109869111 -110.62514409986926,-11.49352146492148 c-4.310070549345556,-7.183450915575926 12.930211648036664,-12.930211648036664 35.917254577879625,-12.930211648036664 c24.42373311295815,0 44.53739567657073,-7.183450915575926 44.53739567657073,-14.366901831151852 c0,-8.62014109869111 15.80359201426704,-11.49352146492148 37.35394476099482,-5.74676073246074 c34.48056439476444,8.62014109869111 35.917254577879625,7.183450915575926 21.55035274672778,-20.1136625636126 c-8.62014109869111,-15.80359201426704 -22.98704292984296,-33.04387421164925 -33.04387421164925,-35.917254577879625 c-11.49352146492148,-5.74676073246074 -10.0568312818063,-8.62014109869111 5.74676073246074,-8.62014109869111 c12.930211648036664,-1.4366901831151855 28.733803662303703,5.74676073246074 33.04387421164925,12.930211648036664 c4.310070549345556,8.62014109869111 24.42373311295815,14.366901831151852 44.53739567657073,14.366901831151852 c18.67697238049741,0 34.48056439476444,7.183450915575926 34.48056439476444,14.366901831151852 c0,8.62014109869111 -8.62014109869111,14.366901831151852 -20.1136625636126,14.366901831151852 c-35.917254577879625,0 -41.66401531034038,30.170493845418893 -10.0568312818063,58.9042975077226 c15.80359201426704,14.366901831151852 25.86042329607333,37.35394476099482 21.55035274672778,47.41077604280112 c-5.74676073246074,15.80359201426704 0,18.67697238049741 22.98704292984296,12.930211648036664 c17.24028219738222,-4.310070549345556 34.48056439476444,-17.24028219738222 38.79063494411001,-27.29711347918852 c8.62014109869111,-22.98704292984296 47.41077604280112,-27.29711347918852 47.41077604280112,-5.74676073246074 c0,8.62014109869111 -15.80359201426704,22.98704292984296 -35.917254577879625,31.607184028534075 c-37.35394476099482,17.24028219738222 -51.720846592146664,48.8474662259163 -14.366901831151852,34.48056439476444 c37.35394476099482,-14.366901831151852 22.98704292984296,14.366901831151852 -35.917254577879625,74.70788952198964 c-31.607184028534075,31.607184028534075 -57.46760732460741,51.720846592146664 -57.46760732460741,45.97408585968592 z" id="svg_5" fill="#872223" fill-opacity="1" stroke="#ffffff" stroke-opacity="1"/>
<path d="M2244.0078834927363,5071.355552440366 c0,-8.62014109869111 5.74676073246074,-18.67697238049741 14.366901831151852,-22.98704292984296 c8.62014109869111,-4.310070549345556 10.0568312818063,1.4366901831151855 5.74676073246074,12.930211648036664 c-10.0568312818063,25.86042329607333 -20.1136625636126,30.170493845418893 -20.1136625636126,10.0568312818063 z" id="svg_6" fill="#872223" fill-opacity="1" stroke="#ffffff" stroke-opacity="1"/>
<path d="M2351.759647226376,5029.691537130026 c-11.49352146492148,-33.04387421164925 0,-34.48056439476444 25.86042329607333,-5.74676073246074 c20.1136625636126,21.55035274672778 21.55035274672778,27.29711347918852 2.8733803662303705,27.29711347918852 c-11.49352146492148,0 -24.42373311295815,-10.0568312818063 -28.733803662303703,-21.55035274672778 z" id="svg_7" fill="#872223" fill-opacity="1" stroke="#ffffff" stroke-opacity="1"/>
<path d="M2399.1704232691764,4995.210972735261 c-58.9042975077226,-15.80359201426704 -66.0877484232985,-27.29711347918852 -33.04387421164925,-54.59422695837704 c17.24028219738222,-14.366901831151852 27.29711347918852,-14.366901831151852 38.79063494411001,-2.8733803662303705 c12.930211648036664,12.930211648036664 11.49352146492148,17.24028219738222 -2.8733803662303705,18.67697238049741 c-11.49352146492148,1.4366901831151855 -2.8733803662303705,5.74676073246074 20.1136625636126,11.49352146492148 c22.98704292984296,4.310070549345556 44.53739567657073,17.24028219738222 48.8474662259163,27.29711347918852 c5.74676073246074,20.1136625636126 1.4366901831151855,20.1136625636126 -71.83450915575925,0 z" id="svg_8" fill="#872223" fill-opacity="1" stroke="#ffffff" stroke-opacity="1"/>
<path d="M2164.9899234214017,4965.040478889842 c-5.74676073246074,-18.67697238049741 -2.8733803662303705,-56.030917141492225 4.310070549345556,-83.32803062068076 l14.366901831151852,-48.8474662259163 l1.4366901831151855,61.777677873952975 c1.4366901831151855,33.04387421164925 8.62014109869111,60.340987690837785 17.24028219738222,60.340987690837785 c7.183450915575926,0 11.49352146492148,-5.74676073246074 7.183450915575926,-12.930211648036664 c-7.183450915575926,-11.49352146492148 21.55035274672778,-30.170493845418893 48.8474662259163,-30.170493845418893 c21.55035274672778,0 7.183450915575926,66.0877484232985 -14.366901831151852,66.0877484232985 c-11.49352146492148,1.4366901831151855 -33.04387421164925,5.74676073246074 -45.97408585968592,11.49352146492148 c-18.67697238049741,8.62014109869111 -27.29711347918852,2.8733803662303705 -33.04387421164925,-24.42373311295815 z" id="svg_9" fill="#872223" fill-opacity="1" stroke="#ffffff" stroke-opacity="1"/>
<path d="M2088.845343716297,4919.066393030158 c-10.0568312818063,-12.930211648036664 -11.49352146492148,-21.55035274672778 -2.8733803662303705,-21.55035274672778 c7.183450915575926,0 14.366901831151852,-5.74676073246074 14.366901831151852,-14.366901831151852 c0,-7.183450915575926 -8.62014109869111,-14.366901831151852 -17.24028219738222,-14.366901831151852 c-10.0568312818063,0 -37.35394476099482,-15.80359201426704 -61.777677873952975,-34.48056439476444 l-43.10070549345556,-34.48056439476444 l43.10070549345556,-11.49352146492148 c24.42373311295815,-5.74676073246074 48.8474662259163,-17.24028219738222 54.59422695837704,-25.86042329607333 c7.183450915575926,-8.62014109869111 8.62014109869111,0 4.310070549345556,21.55035274672778 c-5.74676073246074,27.29711347918852 -1.4366901831151855,41.66401531034038 12.930211648036664,47.41077604280112 c12.930211648036664,4.310070549345556 20.1136625636126,25.86042329607333 18.67697238049741,58.9042975077226 c-1.4366901831151855,27.29711347918852 -2.8733803662303705,50.28415640903149 -2.8733803662303705,50.28415640903149 c-1.4366901831151855,-1.4366901831151855 -10.0568312818063,-10.0568312818063 -20.1136625636126,-21.55035274672778 z" id="svg_10" fill="#872223" fill-opacity="1" stroke="#ffffff" stroke-opacity="1"/>
<path d="M2301.475490817344,4920.503083213272 c0,-24.42373311295815 22.98704292984296,-43.10070549345556 33.04387421164925,-27.29711347918852 c4.310070549345556,7.183450915575926 -1.4366901831151855,20.1136625636126 -12.930211648036664,30.170493845418893 c-17.24028219738222,14.366901831151852 -20.1136625636126,14.366901831151852 -20.1136625636126,-2.8733803662303705 z" id="svg_11" fill="#872223" fill-opacity="1" stroke="#ffffff" stroke-opacity="1"/>
<path d="M2034.2511167579191,4906.13618138212 c-5.74676073246074,-15.80359201426704 -12.930211648036664,-20.1136625636126 -18.67697238049741,-10.0568312818063 c-7.183450915575926,10.0568312818063 -30.170493845418893,4.310070549345556 -70.39781897264407,-14.366901831151852 c-74.70788952198964,-37.35394476099482 -68.96112878952889,-48.8474662259163 18.67697238049741,-35.917254577879625 c43.10070549345556,7.183450915575926 68.96112878952889,20.1136625636126 80.4546502544504,38.79063494411001 c8.62014109869111,17.24028219738222 11.49352146492148,33.04387421164925 7.183450915575926,37.35394476099482 c-4.310070549345556,4.310070549345556 -12.930211648036664,-2.8733803662303705 -17.24028219738222,-15.80359201426704 z" id="svg_12" fill="#872223" fill-opacity="1" stroke="#ffffff" stroke-opacity="1"/>
<path d="M2252.6280245914277,4875.965687536702 c5.74676073246074,-11.49352146492148 11.49352146492148,-21.55035274672778 14.366901831151852,-21.55035274672778 c2.8733803662303705,0 5.74676073246074,10.0568312818063 5.74676073246074,21.55035274672778 c0,11.49352146492148 -5.74676073246074,21.55035274672778 -14.366901831151852,21.55035274672778 c-7.183450915575926,0 -10.0568312818063,-10.0568312818063 -5.74676073246074,-21.55035274672778 z" id="svg_13" fill="#872223" fill-opacity="1" stroke="#ffffff" stroke-opacity="1"/>
<path d="M2351.759647226376,4868.782236621126 c-24.42373311295815,-10.0568312818063 -18.67697238049741,-15.80359201426704 40.2273251272252,-41.66401531034038 c38.79063494411001,-15.80359201426704 76.14457970510483,-30.170493845418893 84.76472080379594,-30.170493845418893 c22.98704292984296,0 -24.42373311295815,64.65105824018333 -47.41077604280112,64.65105824018333 c-11.49352146492148,0 -25.86042329607333,4.310070549345556 -34.48056439476444,10.0568312818063 c-7.183450915575926,4.310070549345556 -27.29711347918852,2.8733803662303705 -43.10070549345556,-2.8733803662303705 z" id="svg_14" fill="#872223" fill-opacity="1" stroke="#ffffff" stroke-opacity="1"/>
<path d="M2249.7546442251974,4808.441248930288 c-5.74676073246074,-10.0568312818063 -4.310070549345556,-11.49352146492148 5.74676073246074,-5.74676073246074 c24.42373311295815,14.366901831151852 21.55035274672778,-8.62014109869111 -4.310070549345556,-43.10070549345556 c-18.67697238049741,-24.42373311295815 -20.1136625636126,-24.42373311295815 -21.55035274672778,-2.8733803662303705 c0,28.733803662303703 -7.183450915575926,34.48056439476444 -73.27119933887447,45.97408585968592 c-38.79063494411001,7.183450915575926 -53.15753677526186,4.310070549345556 -51.720846592146664,-8.62014109869111 c1.4366901831151855,-48.8474662259163 -5.74676073246074,-70.39781897264407 -20.1136625636126,-60.340987690837785 c-11.49352146492148,5.74676073246074 -11.49352146492148,0 0,-21.55035274672778 c10.0568312818063,-17.24028219738222 14.366901831151852,-35.917254577879625 10.0568312818063,-41.66401531034038 c-4.310070549345556,-5.74676073246074 -1.4366901831151855,-20.1136625636126 7.183450915575926,-31.607184028534075 c10.0568312818063,-17.24028219738222 12.930211648036664,-17.24028219738222 12.930211648036664,4.310070549345556 c0,31.607184028534075 56.030917141492225,145.10570849463372 66.0877484232985,135.04887721282742 c4.310070549345556,-4.310070549345556 20.1136625636126,-44.53739567657073 34.48056439476444,-91.94817171937184 c21.55035274672778,-70.39781897264407 25.86042329607333,-76.14457970510483 27.29711347918852,-38.79063494411001 c1.4366901831151855,25.86042329607333 10.0568312818063,66.0877484232985 20.1136625636126,91.94817171937184 l20.1136625636126,45.97408585968592 l44.53739567657073,-68.96112878952889 c35.917254577879625,-53.15753677526186 45.97408585968592,-61.777677873952975 45.97408585968592,-37.35394476099482 c0,18.67697238049741 -15.80359201426704,57.46760732460741 -35.917254577879625,89.07479135314146 c-35.917254577879625,57.46760732460741 -67.52443860641371,71.83450915575925 -87.63810117002632,40.2273251272252 z" id="svg_15" fill="#872223" fill-opacity="1" stroke="#ffffff" stroke-opacity="1"/>
<path d="M1985.4036505320032,4766.777233619948 c0,-7.183450915575926 7.183450915575926,-10.0568312818063 14.366901831151852,-5.74676073246074 c8.62014109869111,4.310070549345556 14.366901831151852,11.49352146492148 14.366901831151852,15.80359201426704 c0,2.8733803662303705 -5.74676073246074,5.74676073246074 -14.366901831151852,5.74676073246074 c-7.183450915575926,0 -14.366901831151852,-7.183450915575926 -14.366901831151852,-15.80359201426704 z" id="svg_16" fill="#872223" fill-opacity="1" stroke="#ffffff" stroke-opacity="1"/>
</g></g></svg>