<svg version="1.1" id="Layer_1" xmlns="http://www.w3.org/2000/svg" xmlns:xlink="http://www.w3.org/1999/xlink" x="0px" y="0px"
	 width="100%" viewBox="0 0 833 840" enable-background="new 0 0 833 840" xml:space="preserve">
<path fill="#12180C" opacity="1.000000" stroke="none" 
	d="
M755.825928,281.039642 
	C755.884155,282.701447 755.993042,284.363281 755.993164,286.025085 
	C756.001221,396.679413 755.975586,507.333740 756.104736,617.987915 
	C756.109253,621.834961 754.943665,623.945007 751.733337,625.850464 
	C666.206848,676.611938 580.728271,727.453918 495.241486,778.282166 
	C470.736237,792.852356 446.230957,807.422424 421.366089,821.478271 
	C421.010986,785.694702 421.015503,750.425537 421.344971,715.020447 
	C435.820770,706.618347 449.969604,698.348694 464.122833,690.086487 
	C532.347900,650.258972 600.577698,610.439392 668.776428,570.566833 
	C670.221619,569.721863 671.314514,568.274414 672.760803,566.732910 
	C673.010559,564.530457 673.124084,562.703125 673.124329,560.875732 
	C673.133423,493.583588 673.127136,426.291443 673.138184,358.999298 
	C673.139587,350.672668 673.225464,342.346039 673.595459,333.961121 
	C685.895874,326.170441 697.872070,318.436737 709.850281,310.706146 
	C725.174683,300.815979 740.500610,290.928345 755.825928,281.039642 
z"/>
<path fill="#872223" opacity="1.000000" stroke="none" 
	d="
M673.272217,334.019409 
	C673.225464,342.346039 673.139587,350.672668 673.138184,358.999298 
	C673.127136,426.291443 673.133423,493.583588 673.124329,560.875732 
	C673.124084,562.703125 673.010559,564.530457 672.367981,566.688232 
	C645.221191,551.985291 618.682068,536.906067 592.055908,521.981934 
	C589.032227,520.287170 588.175720,518.275269 588.182800,514.931335 
	C588.288757,465.101959 588.198425,415.272064 588.351624,365.442932 
	C588.365723,360.836731 587.132935,357.281189 584.364441,353.654572 
	C554.183533,314.118378 524.165710,274.457672 494.043823,234.876251 
	C485.895691,224.169250 477.546509,213.615219 469.209106,202.637482 
	C465.026001,194.792282 464.703674,194.603806 457.576233,198.824326 
	C436.772980,211.143021 416.020447,223.547531 395.283813,235.978104 
	C394.442413,236.482498 393.964081,237.592575 393.214905,238.377930 
	C393.113220,238.335403 393.189423,238.128571 392.895355,238.149261 
	C392.408173,238.477524 392.215057,238.785110 392.017761,239.055634 
	C392.013519,239.018555 392.082214,239.047745 391.752106,239.003235 
	C390.946960,239.335297 390.471924,239.711868 390.002136,240.050079 
	C390.007355,240.011703 390.083374,240.026505 389.753174,240.025543 
	C388.928192,240.390442 388.433441,240.756271 387.776794,241.409515 
	C385.806274,242.486237 383.997650,243.275543 381.884827,243.903931 
	C379.529480,241.139786 377.454620,238.554855 375.430908,235.930511 
	C355.906189,210.610977 336.390076,185.284805 316.871490,159.960526 
	C334.038269,149.623566 351.172150,139.231476 368.378906,128.961441 
	C401.570374,109.150810 434.802979,89.409111 468.630554,69.743217 
	C474.519165,76.463966 479.888031,83.009163 485.057861,89.707954 
	C524.631287,140.985153 564.177063,192.283707 603.708313,243.593369 
	C626.918091,273.718567 650.085693,303.876312 673.272217,334.019409 
z"/>
<path fill="#872223" opacity="1.000000" stroke="none" 
	d="
M85.302017,420.807037 
	C85.234093,397.018280 85.149559,373.229584 85.104057,349.440796 
	C85.073502,333.466949 85.163208,317.492493 85.036835,301.519592 
	C85.014755,298.729248 85.777077,297.011841 88.247398,295.547272 
	C135.279724,267.663452 182.264557,239.699463 229.264038,211.760193 
	C229.826355,211.425919 230.451401,211.197189 231.604935,211.175659 
	C244.068161,226.571991 256.030060,241.667938 267.866547,256.861572 
	C288.065735,282.789825 308.150940,308.806824 328.349060,334.735931 
	C351.408417,364.338165 374.530609,393.891479 397.642578,423.452698 
	C406.425323,434.686218 415.255615,445.882568 424.059021,457.553467 
	C424.062897,512.934326 424.072021,567.857544 423.733643,622.773132 
	C394.635681,605.221375 365.906128,587.642700 337.099304,570.191528 
	C334.496857,568.614929 333.552216,566.894653 333.563507,563.868774 
	C333.673553,534.387207 333.570557,504.904724 333.703827,475.423309 
	C333.720703,471.695435 332.711945,468.809753 330.401703,465.922668 
	C311.488739,442.287079 292.717346,418.538361 273.855133,394.862061 
	C260.290802,377.835724 246.653214,360.867798 232.987289,343.538269 
	C231.138046,340.847565 229.349792,338.492371 227.574600,336.154388 
	C226.859528,336.397919 226.355850,336.478973 225.947998,336.721283 
	C199.710236,352.311615 173.456650,367.875702 147.275406,383.560516 
	C143.426834,385.866150 139.925003,388.750549 136.193573,391.341034 
	C136.124435,391.314880 136.169189,391.173981 135.826096,391.121094 
	C135.042038,391.501068 134.601059,391.933960 134.095474,392.294800 
	C134.030853,392.222778 134.185379,392.106232 133.898682,392.145813 
	C133.413086,392.488831 133.214203,392.792236 133.014709,393.058655 
	C133.014084,393.021667 133.085266,393.041992 132.773834,393.021362 
	C131.946136,393.292694 131.429855,393.584656 130.605499,394.040649 
	C128.797073,395.164093 127.321678,396.165375 125.792442,397.076233 
	C112.488220,405.001251 99.174339,412.910034 85.722244,420.844543 
	C85.581177,420.865509 85.302010,420.807037 85.302017,420.807037 
z"/>
<path fill="#1A4430" opacity="1.000000" stroke="none" 
	d="
M85.212463,421.287567 
	C85.302010,420.807037 85.581177,420.865509 86.076553,420.952454 
	C115.340591,437.942383 144.109253,454.845398 172.912201,472.232147 
	C172.961548,503.173706 172.964096,533.631531 173.020935,564.089294 
	C173.024567,566.034485 173.449036,567.978943 173.789642,570.271790 
	C197.350845,584.352173 220.792908,598.096802 244.250900,611.814148 
	C303.170135,646.268066 362.096527,680.709717 421.020020,715.156250 
	C421.015503,750.425537 421.010986,785.694702 421.012543,821.425171 
	C411.427246,816.385681 401.757721,811.016235 392.256439,805.363953 
	C291.930756,745.681702 191.650848,685.922363 91.263458,626.344177 
	C86.800171,623.695312 84.912804,621.158997 84.934998,615.671143 
	C85.196442,551.037598 85.114456,486.402679 85.212463,421.287567 
z"/>
<path fill="#194430" opacity="1.000000" stroke="none" 
	d="
M673.595459,333.961121 
	C650.085693,303.876312 626.918091,273.718567 603.708313,243.593369 
	C564.177063,192.283707 524.631287,140.985153 485.057861,89.707954 
	C479.888031,83.009163 474.519165,76.463966 468.960083,69.598312 
	C493.729645,54.373875 518.780396,39.396687 543.834961,24.425837 
	C547.678894,22.128984 551.540222,19.861370 555.982849,17.231398 
	C560.989319,23.730881 566.052795,30.222343 571.030518,36.778893 
	C631.854309,116.894150 692.665710,197.018814 753.477661,277.143036 
	C754.281128,278.201660 755.050293,279.286316 755.830688,280.699219 
	C740.500610,290.928345 725.174683,300.815979 709.850281,310.706146 
	C697.872070,318.436737 685.895874,326.170441 673.595459,333.961121 
z"/>
<path fill="#194430" opacity="1.000000" stroke="none" 
	d="
M424.064209,457.095886 
	C415.255615,445.882568 406.425323,434.686218 397.642578,423.452698 
	C374.530609,393.891479 351.408417,364.338165 328.349060,334.735931 
	C308.150940,308.806824 288.065735,282.789825 267.866547,256.861572 
	C256.030060,241.667938 244.068161,226.571991 231.956146,211.150436 
	C239.572540,205.994003 247.323410,200.998764 255.232468,196.268051 
	C275.514404,184.136581 295.866638,172.122650 316.531128,160.011139 
	C336.390076,185.284805 355.906189,210.610977 375.430908,235.930511 
	C377.454620,238.554855 379.529480,241.139786 381.909973,244.234558 
	C417.663330,290.481812 453.110565,336.219543 488.491211,382.008759 
	C495.369507,390.910675 501.988251,400.013123 508.388885,409.080750 
	C486.854614,421.434875 465.684021,433.776276 444.446564,446.001495 
	C437.744507,449.859528 430.863403,453.406555 424.064209,457.095886 
z"/>
<path fill="#181C10" opacity="1.000000" stroke="none" 
	d="
M469.209106,202.637482 
	C446.917725,213.591446 424.547394,224.195160 402.171967,234.788101 
	C399.476196,236.064316 396.752747,237.282089 393.679352,238.473679 
	C393.964081,237.592575 394.442413,236.482498 395.283813,235.978104 
	C416.020447,223.547531 436.772980,211.143021 457.576233,198.824326 
	C464.703674,194.603806 465.026001,194.792282 469.209106,202.637482 
z"/>
<path fill="#181C10" opacity="1.000000" stroke="none" 
	d="
M391.752106,239.003235 
	C391.600281,239.374466 391.118317,239.701187 390.316650,240.058182 
	C390.471924,239.711868 390.946960,239.335297 391.752106,239.003235 
z"/>
<path fill="#181C10" opacity="1.000000" stroke="none" 
	d="
M389.753174,240.025543 
	C389.582825,240.359955 389.082245,240.693420 388.260193,241.074493 
	C388.433441,240.756271 388.928192,240.390442 389.753174,240.025543 
z"/>
<path fill="#181C10" opacity="1.000000" stroke="none" 
	d="
M392.895355,238.149261 
	C393.018219,238.430969 392.847046,238.733368 392.348907,239.064240 
	C392.215057,238.785110 392.408173,238.477524 392.895355,238.149261 
z"/>
<path fill="#12180C" opacity="1.000000" stroke="none" 
	d="
M508.388885,409.080750 
	C508.786774,428.821503 508.881012,448.619934 508.899109,468.418396 
	C508.928192,500.203430 508.950592,531.988708 508.800995,563.773132 
	C508.791779,565.733826 507.824219,568.544617 506.350494,569.516907 
	C479.238617,587.403870 451.981415,605.070618 424.417999,622.782349 
	C424.072021,567.857544 424.062897,512.934326 424.059021,457.553497 
	C430.863403,453.406555 437.744507,449.859528 444.446564,446.001495 
	C465.684021,433.776276 486.854614,421.434875 508.388885,409.080750 
z"/>
<path fill="#191C11" opacity="1.000000" stroke="none" 
	d="
M232.987289,343.538269 
	C201.028900,359.733643 169.009521,375.593475 136.626434,391.410248 
	C139.925003,388.750549 143.426834,385.866150 147.275406,383.560516 
	C173.456650,367.875702 199.710236,352.311615 225.947998,336.721283 
	C226.355850,336.478973 226.859528,336.397919 227.574600,336.154388 
	C229.349792,338.492371 231.138046,340.847565 232.987289,343.538269 
z"/>
<path fill="#191C11" opacity="1.000000" stroke="none" 
	d="
M135.826096,391.121094 
	C135.728500,391.645569 135.287796,392.117157 134.503601,392.477783 
	C134.601059,391.933960 135.042038,391.501068 135.826096,391.121094 
z"/>
<path fill="#191C11" opacity="1.000000" stroke="none" 
	d="
M132.773834,393.021362 
	C132.578247,393.370483 132.071213,393.699005 131.238892,393.952026 
	C131.429855,393.584656 131.946136,393.292694 132.773834,393.021362 
z"/>
<path fill="#191C11" opacity="1.000000" stroke="none" 
	d="
M133.898666,392.145813 
	C134.018051,392.418549 133.850739,392.730896 133.349365,393.069458 
	C133.214203,392.792236 133.413086,392.488831 133.898666,392.145813 
z"/>
<path fill="#13190D" opacity="1.000000" stroke="none" 
	d="
M172.912201,472.232147 
	C202.405487,454.119446 231.933060,436.490448 262.104431,418.477081 
	C262.104431,421.819031 262.104431,424.268066 262.104431,426.717072 
	C262.104431,456.377563 262.082245,486.038086 262.142395,515.698486 
	C262.147766,518.352173 261.780640,520.182312 259.077667,521.687317 
	C230.707657,537.483887 202.432587,553.450928 173.904510,569.647339 
	C173.449036,567.978943 173.024567,566.034485 173.020935,564.089294 
	C172.964096,533.631531 172.961548,503.173706 172.912201,472.232147 
z"/>
</svg>